# File created by Blade
# Date/Time:  Wed Jan 21 17:34:04 2015
# Frame Rate: 120.000 fps
#------------------------------------------------------
:FULLY-SPECIFIED
:DEGREES
204
root 21.984377 31.738683 -13.787799 -152.194209 0.635409 -179.034203
Spine 63.116114 6.414361 -2.412538
Head -24.952026 0.340440 10.398994
LeftShoulder 26.337229 -45.314746 -2.740431
LeftArm 19.806617 16.852517 -54.261291
LeftForeArm -5.358603 -0.000000 8.901058
LeftHand -0.843307 0.000000 6.199986
LeftHandThumb1 -26.253704 0.000000 33.147579
RightShoulder 15.624542 9.208045 -4.607965
RightArm 53.074143 3.996534 46.175860
RightForeArm -19.161335 -0.000000 22.357409
RightHand -2.546281 -0.000000 -8.034257
RightHandThumb1 -24.326973 -0.000000 -32.862282
LeftUpLeg -64.063866 0.855102 -4.853614
LeftLeg 51.721171 -0.000000 -0.000000
LeftFoot -33.243751 27.951012 -12.297402
LeftToeBase 22.850394 -0.000000 -0.000000
RightUpLeg -63.386328 3.282430 7.719095
RightLeg 50.977669 -0.000000 -0.000000
RightFoot -35.437955 -28.772406 17.837479
RightToeBase 23.863312 -0.000000 -0.000000
205
root 21.982508 31.515911 -13.763587 -151.707521 0.577598 -179.018863
Spine 63.304321 6.349312 -2.513172
Head -25.264857 0.572682 10.391570
LeftShoulder 26.588756 -45.649641 -2.856426
LeftArm 19.854940 16.707940 -53.787937
LeftForeArm -5.674311 0.000000 8.699559
LeftHand -0.867350 -0.000000 6.164872
LeftHandThumb1 -26.253704 0.000000 33.147579
RightShoulder 15.787518 9.472815 -4.659078
RightArm 53.187553 4.090462 45.334811
RightForeArm -19.418516 -0.000000 22.768518
RightHand -2.700149 -0.000000 -8.088454
RightHandThumb1 -24.326973 -0.000000 -32.862282
LeftUpLeg -65.441155 0.733080 -4.850781
LeftLeg 53.257141 -0.000000 -0.000000
LeftFoot -33.916266 28.140312 -12.207305
LeftToeBase 22.949433 -0.000000 -0.000000
RightUpLeg -64.776892 3.531619 7.629547
RightLeg 52.525151 -0.000000 -0.000000
RightFoot -36.195848 -28.983833 18.007739
RightToeBase 23.993357 -0.000000 -0.000000
206
root 21.972556 31.286646 -13.738801 -151.206929 0.520574 -179.066387
Spine 63.450600 6.277241 -2.593009
Head -25.553431 0.656067 10.328902
LeftShoulder 26.813114 -45.817000 -2.996276
LeftArm 20.055605 16.520989 -53.245139
LeftForeArm -5.978552 0.000000 8.585308
LeftHand -1.002425 -0.000000 6.063959
LeftHandThumb1 -26.253704 0.000000 33.147579
RightShoulder 15.857258 9.585375 -4.760190
RightArm 53.370472 4.217815 44.436957
RightForeArm -19.802843 -0.000000 23.192339
RightHand -2.929655 -0.000000 -8.170917
RightHandThumb1 -24.326973 -0.000000 -32.862282
LeftUpLeg -66.880256 0.573692 -4.913347
LeftLeg 54.817505 -0.000000 -0.000000
LeftFoot -34.506463 28.223480 -12.316586
LeftToeBase 22.907160 -0.000000 -0.000000
RightUpLeg -66.219890 3.710737 7.506461
RightLeg 54.111389 -0.000000 -0.000000
RightFoot -36.982503 -29.144030 18.286210
RightToeBase 24.022176 -0.000000 -0.000000
207
root 21.960748 31.047074 -13.719836 -150.773434 0.421192 -179.164937
Spine 63.632846 6.192778 -2.651085
Head -25.820827 0.748050 10.330779
LeftShoulder 27.204243 -46.132790 -3.215511
LeftArm 20.011946 16.272265 -52.896165
LeftForeArm -6.154822 -0.000000 8.493814
LeftHand -0.988431 -0.000000 6.080056
LeftHandThumb1 -26.253704 0.000000 33.147579
RightShoulder 15.908583 9.634138 -4.937790
RightArm 53.442035 4.497106 43.781759
RightForeArm -20.181192 -0.000000 23.721986
RightHand -2.905770 -0.000000 -8.307810
RightHandThumb1 -24.326973 -0.000000 -32.862282
LeftUpLeg -68.323874 0.416362 -5.052867
LeftLeg 56.487422 -0.000000 -0.000000
LeftFoot -35.076158 28.142405 -12.633206
LeftToeBase 22.809038 -0.000000 -0.000000
RightUpLeg -67.607764 3.900603 7.272246
RightLeg 55.774142 -0.000000 -0.000000
RightFoot -37.830439 -29.299368 18.586355
RightToeBase 24.103048 -0.000000 -0.000000
208
root 21.947437 30.808852 -13.698797 -150.322181 0.318131 -179.258494
Spine 63.788914 6.064414 -2.735659
Head -26.079801 0.856825 10.262869
LeftShoulder 27.426561 -46.351600 -3.340774
LeftArm 20.095249 16.080724 -52.490400
LeftForeArm -6.412530 0.000000 8.470796
LeftHand -1.088135 -0.000000 6.215363
LeftHandThumb1 -26.253704 0.000000 33.147579
RightShoulder 16.007573 9.870506 -5.061923
RightArm 53.396713 4.642766 43.100416
RightForeArm -20.837092 0.000000 24.283801
RightHand -3.060628 -0.000000 -8.063836
RightHandThumb1 -24.326973 -0.000000 -32.862282
LeftUpLeg -69.722298 0.209530 -5.134125
LeftLeg 58.056553 -0.000000 -0.000000
LeftFoot -35.651483 28.084252 -12.868088
LeftToeBase 22.790946 -0.000000 -0.000000
RightUpLeg -68.985207 3.977413 7.124185
RightLeg 57.371463 -0.000000 -0.000000
RightFoot -38.597500 -29.340667 18.768599
RightToeBase 24.088131 -0.000000 -0.000000
209
root 21.936042 30.567506 -13.681262 -149.910139 0.205179 -179.379506
Spine 63.965190 5.964329 -2.798247
Head -26.319703 0.938887 10.240129
LeftShoulder 27.676458 -46.505061 -3.477469
LeftArm 20.215474 15.856585 -52.068283
LeftForeArm -6.723206 -0.000000 8.511062
LeftHand -1.218733 -0.000000 6.368349
LeftHandThumb1 -26.253704 0.000000 33.147579
RightShoulder 16.043671 9.971454 -5.128721
RightArm 53.462780 4.848519 42.326150
RightForeArm -21.298930 -0.000000 24.764066
RightHand -3.030944 -0.000000 -8.170715
RightHandThumb1 -24.326973 -0.000000 -32.862282
LeftUpLeg -71.009172 -0.019191 -5.216561
LeftLeg 59.541909 -0.000000 -0.000000
LeftFoot -36.249715 28.037782 -12.965828
LeftToeBase 22.766490 -0.000000 -0.000000
RightUpLeg -70.346657 4.048626 6.949265
RightLeg 59.005383 -0.000000 -0.000000
RightFoot -39.378800 -29.348219 19.041679
RightToeBase 24.004667 -0.000000 -0.000000
210
root 21.929775 30.316315 -13.667933 -149.542812 0.124403 -179.428099
Spine 64.137080 5.901779 -2.840080
Head -26.509554 1.021490 10.214564
LeftShoulder 27.850398 -46.665997 -3.563759
LeftArm 20.285101 15.569085 -51.726683
LeftForeArm -6.973452 -0.000000 8.550205
LeftHand -1.351191 0.000000 6.577874
LeftHandThumb1 -26.253704 0.000000 33.147579
RightShoulder 16.189102 10.244378 -5.254973
RightArm 53.216523 5.127449 42.001580
RightForeArm -22.137004 -0.000000 25.494597
RightHand -3.095599 0.000000 -7.917477
RightHandThumb1 -24.326973 -0.000000 -32.862282
LeftUpLeg -72.295099 -0.113755 -5.284074
LeftLeg 61.126532 -0.000000 -0.000000
LeftFoot -36.912237 27.836909 -13.106176
LeftToeBase 22.741374 -0.000000 -0.000000
RightUpLeg -71.640513 4.128299 6.875393
RightLeg 60.618167 -0.000000 -0.000000
RightFoot -40.135510 -29.357791 19.279799
RightToeBase 24.001784 -0.000000 -0.000000
211
root 21.920946 30.060644 -13.665368 -149.262902 0.055486 -179.475763
Spine 64.377001 5.852307 -2.865247
Head -26.657733 1.085645 10.188308
LeftShoulder 28.043011 -46.798659 -3.739141
LeftArm 20.431545 15.496678 -51.277414
LeftForeArm -7.280523 -0.000000 8.521044
LeftHand -1.263648 0.000000 6.765004
LeftHandThumb1 -26.253704 0.000000 33.147579
RightShoulder 16.301001 10.397168 -5.329664
RightArm 53.081334 5.437183 41.565814
RightForeArm -22.822269 0.000000 26.183820
RightHand -3.370870 -0.000000 -8.052689
RightHandThumb1 -24.326973 -0.000000 -32.862282
LeftUpLeg -73.450988 -0.154195 -5.395217
LeftLeg 62.676566 -0.000000 -0.000000
LeftFoot -37.626841 27.617766 -13.165816
LeftToeBase 22.783132 -0.000000 -0.000000
RightUpLeg -72.824220 4.142941 6.858288
RightLeg 62.223085 -0.000000 -0.000000
RightFoot -40.898153 -29.319201 19.420043
RightToeBase 24.059342 -0.000000 -0.000000
212
root 21.917626 29.796238 -13.668846 -149.045319 -0.044857 -179.486929
Spine 64.628673 5.813915 -2.814460
Head -26.758684 1.126200 10.153782
LeftShoulder 28.282200 -46.922618 -3.893210
LeftArm 20.444803 15.077602 -51.049247
LeftForeArm -7.207477 -0.000000 8.613114
LeftHand -1.414036 -0.000000 6.952453
LeftHandThumb1 -26.253704 0.000000 33.147579
RightShoulder 16.405565 10.553312 -5.415877
RightArm 52.844448 5.660528 41.062527
RightForeArm -23.419456 0.000000 26.865187
RightHand -3.444255 -0.000000 -8.250105
RightHandThumb1 -24.326973 -0.000000 -32.862282
LeftUpLeg -74.527091 -0.201944 -5.458553
LeftLeg 64.201284 -0.000000 -0.000000
LeftFoot -38.449106 27.452275 -13.236545
LeftToeBase 22.927099 -0.000000 -0.000000
RightUpLeg -73.939855 4.167418 6.897020
RightLeg 63.826419 -0.000000 -0.000000
RightFoot -41.710001 -29.323774 19.610080
RightToeBase 24.121152 -0.000000 -0.000000
213
root 21.910730 29.529534 -13.678325 -148.873395 -0.080969 -179.501183
Spine 64.918438 5.818012 -2.802628
Head -26.878121 1.173101 10.081691
LeftShoulder 28.384327 -46.997773 -3.999219
LeftArm 20.580260 14.956489 -50.675383
LeftForeArm -7.439087 -0.000000 8.736991
LeftHand -1.615809 -0.000000 7.514579
LeftHandThumb1 -26.253704 0.000000 33.147579
RightShoulder 16.471951 10.706228 -5.489479
RightArm 52.703661 5.859681 40.588155
RightForeArm -23.906692 0.000000 27.480549
RightHand -3.672702 -0.000000 -8.586192
RightHandThumb1 -24.326973 -0.000000 -32.862282
LeftUpLeg -75.536470 -0.196881 -5.576341
LeftLeg 65.728367 -0.000000 -0.000000
LeftFoot -39.226306 27.387202 -13.165132
LeftToeBase 23.004343 -0.000000 -0.000000
RightUpLeg -75.000372 4.200174 6.923474
RightLeg 65.440998 -0.000000 -0.000000
RightFoot -42.459030 -29.246514 19.766334
RightToeBase 24.109051 -0.000000 -0.000000
214
root 21.913002 29.260724 -13.693160 -148.771737 -0.118994 -179.401468
Spine 65.235069 5.906495 -2.636464
Head -26.920351 1.146985 10.061936
LeftShoulder 28.582212 -47.007374 -4.136479
LeftArm 20.726824 14.854473 -50.290561
LeftForeArm -7.731157 -0.000000 8.857084
LeftHand -1.662491 -0.000000 7.824832
LeftHandThumb1 -26.253704 0.000000 33.147579
RightShoulder 16.499466 10.388374 -5.524009
RightArm 52.814549 6.340441 39.816228
RightForeArm -24.103363 0.000000 28.077595
RightHand -3.854554 -0.000000 -8.923123
RightHandThumb1 -24.326973 -0.000000 -32.862282
LeftUpLeg -76.495894 -0.126833 -5.586453
LeftLeg 67.281281 -0.000000 -0.000000
LeftFoot -40.020817 27.375174 -13.140785
LeftToeBase 23.011848 -0.000000 -0.000000
RightUpLeg -75.908181 4.298746 7.056715
RightLeg 66.927434 -0.000000 -0.000000
RightFoot -43.201306 -29.321458 19.783138
RightToeBase 24.154489 -0.000000 -0.000000
215
root 21.909847 28.978257 -13.717997 -148.738131 -0.176349 -179.423737
Spine 65.578141 5.940096 -2.560466
Head -26.950790 1.138253 10.039959
LeftShoulder 28.680508 -46.946692 -4.171895
LeftArm 20.891285 14.620800 -49.999468
LeftForeArm -7.806594 -0.000000 9.030511
LeftHand -1.790833 -0.000000 7.970871
LeftHandThumb1 -26.253704 0.000000 33.147579
RightShoulder 16.418097 10.298827 -5.570609
RightArm 52.797971 6.495716 39.135928
RightForeArm -24.399449 -0.000000 28.691508
RightHand -4.178027 -0.000000 -9.487024
RightHandThumb1 -24.326973 -0.000000 -32.862282
LeftUpLeg -77.367699 -0.171774 -5.672749
LeftLeg 68.843312 -0.000000 -0.000000
LeftFoot -40.959669 27.254340 -13.353526
LeftToeBase 23.066344 -0.000000 -0.000000
RightUpLeg -76.873593 4.376494 7.046479
RightLeg 68.635966 -0.000000 -0.000000
RightFoot -44.043976 -29.205584 20.216186
RightToeBase 24.100118 -0.000000 -0.000000
